<?xml version="1.0" standalone="no"?>
<!DOCTYPE svg PUBLIC "-//W3C//DTD SVG 20010904//EN"
 "http://www.w3.org/TR/2001/REC-SVG-20010904/DTD/svg10.dtd">
<svg version="1.0" xmlns="http://www.w3.org/2000/svg"
 width="800.000000pt" height="648.000000pt" viewBox="0 0 800.000000 648.000000"
 preserveAspectRatio="xMidYMid meet">

<g transform="translate(0.000000,648.000000) scale(0.100000,-0.100000)"
fill="#000000" stroke="none">
<path d="M7278 5972 c-10 -2 -18 -8 -18 -13 0 -11 11 -11 30 1 18 11 11 18
-12 12z"/>
<path d="M7080 5897 l-25 -10 23 -5 c26 -4 36 1 31 16 -3 6 -14 5 -29 -1z"/>
<path d="M7246 5874 c-18 -48 0 -94 38 -94 17 0 16 3 -9 24 -23 20 -27 29 -22
55 7 33 3 41 -7 15z"/>
<path d="M7285 5837 c-16 -13 -17 -14 -1 -20 9 -4 15 -3 11 2 -3 5 1 11 7 14
7 2 10 7 7 11 -3 3 -14 0 -24 -7z"/>
<path d="M6883 5823 c-7 -2 -12 -14 -12 -26 1 -17 2 -18 6 -4 2 9 13 17 24 17
10 0 19 5 19 10 0 10 -16 12 -37 3z"/>
<path d="M7330 5794 c-17 -9 -20 -14 -9 -14 9 0 22 7 29 15 15 18 13 18 -20
-1z"/>
<path d="M7040 5752 c0 -10 5 -23 12 -30 17 -17 39 -15 32 3 -4 10 0 15 14 15
12 0 24 5 28 12 4 7 3 8 -4 4 -7 -4 -12 -2 -12 5 0 9 -3 9 -14 0 -11 -9 -20
-10 -35 -1 -18 9 -21 8 -21 -8z"/>
<path d="M6698 5753 c-10 -2 -18 -12 -17 -21 0 -11 2 -12 6 -4 2 6 13 12 24
12 10 0 19 5 19 10 0 10 -3 11 -32 3z"/>
<path d="M6860 5725 c0 -8 2 -15 4 -15 2 0 6 7 10 15 3 8 1 15 -4 15 -6 0 -10
-7 -10 -15z"/>
<path d="M7126 5714 c-17 -12 -17 -14 -4 -14 9 0 20 5 23 11 11 17 2 18 -19 3z"/>
<path d="M6891 5687 c-1 -11 -6 -15 -12 -11 -8 4 -8 0 0 -15 7 -11 9 -21 7
-21 -3 0 -12 12 -20 28 -14 25 -15 25 -16 5 0 -12 9 -27 19 -33 28 -14 33 -13
26 9 -3 12 0 21 10 25 8 3 15 11 15 18 0 10 -2 10 -9 -1 -7 -11 -9 -11 -14 0
-4 10 -6 8 -6 -4z"/>
<path d="M6508 5683 c-28 -7 -21 -21 7 -15 14 2 25 8 25 13 0 9 -4 10 -32 2z"/>
<path d="M6932 5644 c-10 -12 -10 -14 2 -14 17 0 30 16 19 23 -5 3 -14 -1 -21
-9z"/>
<path d="M6706 5614 c-9 -23 -2 -28 13 -10 7 8 8 17 3 20 -6 3 -13 -1 -16 -10z"/>
<path d="M6320 5610 c-13 -8 -12 -10 3 -10 9 0 17 5 17 10 0 12 -1 12 -20 0z"/>
<path d="M6661 5604 c-1 -25 23 -48 41 -41 9 4 7 6 -4 6 -9 1 -21 13 -26 29
-9 23 -11 24 -11 6z"/>
<path d="M6745 5570 c-3 -5 -2 -10 4 -10 5 0 13 5 16 10 3 6 2 10 -4 10 -5 0
-13 -4 -16 -10z"/>
<path d="M7265 5550 c28 -11 55 -20 60 -19 17 1 -69 38 -90 38 -11 0 3 -9 30
-19z"/>
<path d="M6505 5538 c-13 -19 -17 -21 -25 -8 -5 8 -12 11 -16 7 -4 -4 -1 -14
7 -22 12 -13 18 -12 43 9 18 14 25 25 18 30 -6 3 -18 -4 -27 -16z"/>
<path d="M7358 5523 c6 -2 18 -2 25 0 6 3 1 5 -13 5 -14 0 -19 -2 -12 -5z"/>
<path d="M6328 5513 c7 -3 16 -2 19 1 4 3 -2 6 -13 5 -11 0 -14 -3 -6 -6z"/>
<path d="M6550 5500 c-9 -6 -10 -10 -3 -10 6 0 15 5 18 10 8 12 4 12 -15 0z"/>
<path d="M6330 5481 c0 -7 -4 -9 -10 -6 -5 3 -10 -1 -10 -9 0 -9 5 -16 10 -16
13 0 25 28 16 37 -3 4 -6 1 -6 -6z"/>
<path d="M6271 5470 c-1 -18 16 -46 23 -40 2 3 -2 16 -9 30 -8 15 -14 19 -14
10z"/>
<path d="M6137 5464 c-4 -4 -6 -32 -6 -63 l1 -56 9 54 c10 57 9 77 -4 65z"/>
<path d="M6362 5435 c-10 -12 -10 -15 2 -15 7 0 16 7 20 15 7 19 -5 19 -22 0z"/>
<path d="M6650 5405 c-11 -13 -10 -14 4 -9 9 3 16 10 16 15 0 13 -6 11 -20 -6z"/>
<path d="M6683 5345 c-3 -9 -3 -19 1 -22 8 -9 37 18 30 28 -8 14 -24 11 -31
-6z"/>
<path d="M6130 5320 c-8 -5 -12 -12 -9 -15 4 -3 12 1 19 10 14 17 11 19 -10 5z"/>
<path d="M6152 5291 c-11 -6 -10 -10 0 -19 11 -8 14 -7 14 9 0 10 0 19 -1 19
0 0 -6 -4 -13 -9z"/>
<path d="M6294 5257 c-10 -6 -28 -11 -39 -12 -26 -2 -47 -43 -34 -67 21 -40
84 -9 108 54 12 31 -4 42 -35 25z"/>
<path d="M6188 5242 c-14 -6 -14 -10 -3 -25 12 -16 13 -16 17 8 3 14 5 25 4
24 0 0 -9 -3 -18 -7z"/>
<path d="M6260 5131 c0 -6 4 -13 10 -16 6 -3 7 1 4 9 -7 18 -14 21 -14 7z"/>
<path d="M6290 5097 c0 -4 9 -17 20 -29 10 -12 16 -26 13 -32 -4 -6 4 -2 18 9
13 11 26 22 29 24 3 2 -5 0 -18 -4 -17 -5 -27 -1 -42 17 -11 13 -19 19 -20 15z"/>
<path d="M5815 5080 c-3 -5 -2 -10 4 -10 5 0 13 5 16 10 3 6 2 10 -4 10 -5 0
-13 -4 -16 -10z"/>
<path d="M5836 5062 c-6 -10 22 -47 30 -40 3 4 3 16 -1 27 -6 21 -20 27 -29
13z"/>
<path d="M5877 5013 c-3 -5 5 -22 19 -38 13 -15 24 -31 24 -34 0 -3 15 -22 33
-42 17 -20 37 -45 43 -55 7 -12 13 -14 17 -7 4 7 -3 23 -15 36 -13 14 -30 35
-38 47 -8 13 -23 32 -33 44 -9 11 -23 30 -31 40 -7 10 -16 15 -19 9z"/>
<path d="M5590 4909 c0 -5 5 -7 10 -4 6 3 10 8 10 11 0 2 -4 4 -10 4 -5 0 -10
-5 -10 -11z"/>
<path d="M5600 4881 c0 -12 29 -35 36 -28 11 10 -5 37 -21 37 -8 0 -15 -4 -15
-9z"/>
<path d="M5640 4832 c0 -10 22 -32 32 -32 5 0 3 9 -4 20 -13 20 -28 27 -28 12z"/>
<path d="M5680 4786 c0 -4 12 -24 27 -44 15 -20 29 -39 30 -41 2 -3 7 0 11 5
4 5 -10 27 -30 48 -21 22 -38 36 -38 32z"/>
<path d="M5387 4723 c-9 -9 12 -33 29 -33 17 0 18 12 2 28 -14 14 -22 15 -31
5z"/>
<path d="M5565 4710 c-9 -15 4 -50 19 -50 20 0 39 27 32 45 -6 17 -42 20 -51
5z"/>
<path d="M5763 4692 c-8 -5 -8 -12 2 -25 12 -17 13 -16 11 7 0 15 -1 26 -1 26
0 0 -5 -4 -12 -8z"/>
<path d="M5427 4674 c-3 -4 13 -30 36 -58 23 -29 53 -67 67 -85 22 -29 60 -59
60 -47 0 3 -11 16 -25 30 -14 14 -25 29 -25 33 0 4 -19 28 -41 53 -23 25 -40
45 -39 45 0 0 -2 8 -5 18 -7 18 -17 22 -28 11z"/>
<path d="M5186 4572 c-3 -5 4 -18 14 -30 11 -12 20 -26 20 -31 0 -5 8 -16 18
-23 16 -13 22 -21 60 -80 9 -16 23 -28 30 -28 7 0 11 -4 7 -9 -3 -5 6 -18 20
-29 13 -11 21 -22 18 -26 -3 -3 -1 -6 5 -6 7 0 12 4 12 9 0 8 -43 66 -60 81
-3 3 -17 21 -30 40 -27 38 -48 65 -67 85 -7 8 -13 18 -13 23 0 15 -27 34 -34
24z"/>
<path d="M4995 4430 c-8 -13 21 -48 31 -38 3 4 -1 16 -9 28 -10 15 -17 18 -22
10z"/>
<path d="M5161 4397 c-17 -21 -3 -49 23 -45 15 2 21 10 21 28 0 28 -26 38 -44
17z"/>
<path d="M5035 4381 c-7 -13 12 -51 25 -51 6 0 10 -7 10 -15 0 -8 9 -20 20
-27 11 -7 20 -18 20 -25 0 -7 9 -18 20 -25 11 -7 20 -18 20 -25 0 -6 9 -18 20
-26 11 -8 17 -17 12 -22 -4 -5 -1 -5 6 -1 11 6 10 13 -3 33 -17 25 -41 56 -62
78 -7 8 -13 18 -13 24 0 6 -9 16 -20 23 -11 7 -20 17 -20 23 -1 18 -28 47 -35
36z"/>
<path d="M4790 4309 c0 -5 5 -7 10 -4 6 3 10 8 10 11 0 2 -4 4 -10 4 -5 0 -10
-5 -10 -11z"/>
<path d="M4806 4291 c-7 -10 28 -44 37 -35 7 7 -14 44 -25 44 -4 0 -9 -4 -12
-9z"/>
<path d="M4847 4244 c-3 -3 1 -17 10 -31 11 -17 19 -21 27 -13 7 7 4 16 -10
30 -11 11 -23 18 -27 14z"/>
<path d="M3130 4210 c-55 -14 -195 -86 -258 -132 -118 -87 -232 -217 -408
-464 -155 -219 -224 -303 -298 -361 -134 -104 -293 -164 -754 -284 -364 -93
-576 -200 -749 -374 -132 -133 -196 -289 -196 -480 0 -256 97 -510 318 -831
36 -52 65 -99 65 -103 0 -5 4 -11 9 -13 4 -1 11 -14 15 -28 3 -14 3 -19 0 -12
-5 10 -9 10 -22 0 -8 -7 -18 -12 -21 -10 -3 2 -7 -2 -9 -8 -3 -8 3 -10 17 -5
12 4 21 2 21 -4 0 -6 -7 -11 -15 -11 -8 0 -15 -7 -15 -15 0 -8 3 -15 6 -15 3
0 12 7 20 15 24 24 36 17 18 -10 -10 -16 -12 -25 -5 -25 12 0 21 16 25 44 3
22 16 32 16 13 0 -9 4 -17 9 -17 5 0 28 -26 51 -58 250 -334 418 -495 612
-587 102 -48 177 -65 288 -65 321 1 594 179 847 555 59 89 90 143 233 420 87
168 110 202 186 278 43 43 84 71 149 102 85 42 114 51 280 94 248 65 463 209
544 365 46 87 42 154 -12 214 -30 33 -101 30 -175 -7 -134 -67 -249 -88 -337
-62 -56 16 -79 30 -133 83 -65 63 -105 144 -106 214 -1 30 -3 54 -6 54 -14 0
-93 -82 -84 -86 7 -3 10 -14 7 -24 -3 -12 0 -20 7 -20 7 0 9 -8 5 -20 -3 -11
0 -34 9 -52 8 -18 23 -53 34 -78 10 -25 36 -61 57 -80 21 -19 45 -42 54 -50
21 -19 53 -35 111 -56 50 -18 214 -28 204 -13 -3 6 5 7 22 3 17 -4 25 -3 21 3
-4 5 7 10 24 10 17 0 34 5 39 13 4 7 13 9 20 5 9 -5 11 -4 6 3 -7 11 -3 14 27
16 6 1 14 4 17 7 13 15 104 49 112 41 9 -9 -16 -83 -37 -111 -5 -8 -39 -44
-75 -80 -47 -49 -88 -78 -150 -108 -97 -49 -240 -104 -250 -98 -4 2 -47 -9
-96 -25 -49 -16 -95 -30 -102 -30 -7 0 -52 -19 -100 -42 -67 -33 -104 -60
-163 -118 -69 -68 -169 -205 -169 -230 0 -5 -5 -10 -12 -10 -6 0 -9 -3 -5 -6
3 -3 -4 -23 -17 -43 -22 -36 -39 -72 -36 -80 1 -2 -2 -7 -7 -10 -6 -3 -24 -35
-42 -71 -18 -36 -40 -73 -49 -84 -10 -10 -16 -20 -14 -22 6 -11 1 -24 -8 -19
-6 4 -10 3 -9 -2 7 -30 -141 -249 -240 -356 -46 -49 -80 -67 -130 -67 -32 0
-44 6 -65 31 l-26 31 0 246 c1 243 -2 269 -34 345 -20 45 -92 164 -112 184
-13 14 -18 28 -15 47 1 5 -6 5 -16 1 -10 -5 -31 -9 -48 -11 -16 -1 -39 -5 -50
-9 -16 -6 -17 -5 -5 4 13 9 13 11 -2 11 -19 0 -42 -35 -33 -50 8 -12 38 -13
50 -1 6 5 20 12 32 15 16 5 23 2 28 -14 9 -30 23 -24 17 8 l-5 27 22 -19 c12
-11 19 -26 16 -33 -2 -8 -1 -12 4 -9 4 3 13 -6 20 -20 l11 -26 -27 20 c-25 19
-29 19 -53 3 -35 -22 -129 -98 -127 -103 1 -2 -2 3 -8 11 -5 7 -28 37 -49 65
-61 79 -63 83 -23 47 42 -39 46 -36 17 11 -24 39 -25 58 -5 58 8 0 15 6 15 14
0 24 -16 27 -35 6 -17 -19 -18 -19 -38 7 -19 23 -19 27 -4 37 11 9 13 16 6 27
-8 11 -12 11 -16 2 -13 -33 -56 7 -47 44 6 22 4 24 -14 19 -14 -5 -25 0 -36
15 -14 20 -14 23 2 35 13 9 14 16 6 24 -8 8 -14 9 -18 1 -11 -17 -30 -13 -44
10 -9 14 -10 25 -4 31 6 6 8 17 5 24 -4 11 -8 12 -20 3 -23 -20 -36 0 -42 66
-1 5 -6 4 -12 -2 -6 -6 -18 -9 -27 -6 -20 8 -15 0 63 -102 34 -44 72 -96 84
-115 l23 -35 -24 27 c-12 15 -39 48 -58 74 -19 25 -54 70 -78 99 -23 30 -42
58 -42 62 0 13 45 53 104 94 27 19 70 49 95 66 45 32 71 40 84 26 4 -3 -1 -11
-10 -18 -13 -10 -14 -15 -4 -31 11 -17 12 -17 7 -1 -5 15 -2 17 14 12 27 -8
26 14 0 43 -26 28 -29 27 -75 -3 -35 -24 -38 -25 -56 -9 -32 29 -52 98 -47
161 4 62 58 187 85 197 8 3 11 11 8 16 -4 6 -3 9 2 8 5 -2 33 18 63 43 71 59
144 107 175 115 14 3 22 11 18 17 -3 6 -1 7 5 3 15 -9 63 4 56 15 -3 5 2 6 10
3 9 -3 23 1 31 10 19 19 39 21 29 4 -6 -10 -4 -10 7 0 7 6 21 12 32 12 10 0
16 4 13 9 -4 5 2 7 12 4 11 -2 37 3 58 12 21 9 56 18 77 20 21 3 50 11 65 18
15 8 53 23 85 33 32 9 61 22 64 27 4 6 1 7 -7 2 -9 -5 -11 -4 -6 4 4 6 11 9
16 6 4 -3 23 2 41 10 19 8 30 14 24 15 -5 0 14 14 42 31 51 29 227 181 268
231 106 127 116 137 148 140 36 3 67 -17 67 -44 0 -10 4 -18 9 -18 4 0 11 -23
14 -51 4 -29 8 -54 11 -56 5 -6 66 35 176 117 41 31 84 62 95 69 18 10 16 11
-12 6 -109 -21 -217 80 -244 230 -9 49 -9 77 0 126 21 105 60 165 182 279 60
56 112 112 115 125 7 28 49 59 69 51 21 -8 27 9 19 49 -3 20 -12 35 -20 35 -8
0 -14 -5 -14 -10 0 -18 -87 -6 -110 15 -18 17 -38 20 -114 22 -50 1 -107 -2
-126 -7z m77 -43 c0 -8 -5 -14 -11 -15 -24 -2 -116 -31 -143 -44 -172 -88
-292 -198 -452 -412 -56 -75 -110 -145 -119 -154 -10 -10 -27 -34 -40 -55 -65
-111 -251 -313 -278 -303 -8 3 -13 2 -9 -3 3 -5 -8 -19 -25 -31 -48 -34 -231
-117 -275 -124 -22 -4 -60 -13 -85 -21 -25 -8 -56 -16 -70 -18 -14 -2 -37 -9
-51 -15 -15 -6 -44 -14 -65 -17 -50 -9 -134 -32 -207 -56 -32 -11 -63 -16 -69
-13 -6 4 -13 3 -17 -2 -3 -5 -28 -17 -56 -26 -39 -13 -46 -14 -31 -2 11 7 26
14 33 14 7 0 13 5 13 10 0 6 6 10 13 9 6 -1 19 1 27 4 8 3 42 13 75 22 77 21
75 20 110 34 17 7 44 15 60 18 17 2 37 7 45 10 8 4 28 8 44 10 17 3 52 13 79
23 27 10 55 16 63 13 8 -3 14 0 14 6 0 6 6 11 14 11 28 0 212 63 238 82 16 11
32 17 37 14 5 -4 11 -2 13 2 1 5 34 30 73 57 79 55 96 70 90 79 -3 3 -2 4 1 2
10 -8 108 103 133 152 7 12 16 20 22 17 5 -4 9 1 9 9 0 8 6 21 13 28 8 7 20
25 27 38 7 14 23 35 34 47 12 12 21 26 21 30 0 9 20 35 48 61 9 9 17 21 17 28
0 14 144 188 218 262 97 99 239 183 365 217 29 7 52 14 53 14 0 1 1 -5 1 -12z
m293 -6 c0 -5 -8 -12 -17 -14 -14 -4 -12 -5 5 -6 29 -1 29 -21 -1 -21 -13 0
-28 -5 -35 -12 -9 -9 -12 -8 -12 4 0 9 6 19 13 21 7 3 5 6 -5 6 -10 1 -18 6
-18 12 0 5 4 7 10 4 5 -3 18 -1 27 4 23 13 33 14 33 2z m-130 -101 c-12 -16
-25 -30 -29 -30 -4 0 -46 -37 -92 -82 -82 -80 -159 -192 -159 -231 0 -10 -4
-17 -10 -17 -18 0 -11 25 26 98 29 59 55 90 152 182 119 111 151 134 112 80z
m-1045 -1280 c-3 -5 -12 -10 -18 -10 -7 0 -6 4 3 10 19 12 23 12 15 0z m-780
-400 c3 -5 1 -10 -4 -10 -6 0 -11 5 -11 10 0 6 2 10 4 10 3 0 8 -4 11 -10z
m22 -30 c-15 -21 -12 -70 4 -70 5 0 9 -27 9 -61 0 -46 5 -68 21 -91 19 -26 19
-42 1 -43 -27 -2 -71 -20 -89 -37 -12 -11 -26 -17 -32 -13 -6 3 -14 -2 -17
-12 -4 -10 -20 -29 -36 -43 -30 -26 -31 -60 -2 -60 9 0 14 -12 14 -35 0 -19
-1 -37 -2 -40 -2 -2 6 -11 17 -19 16 -13 17 -17 6 -25 -17 -11 -6 -31 19 -31
13 0 17 -5 13 -19 -3 -11 4 -27 15 -37 34 -34 55 -80 48 -107 -8 -33 -41 -44
-65 -23 -22 20 -38 20 -58 1 -13 -14 -18 -12 -47 20 -18 19 -40 35 -49 35 -10
0 -17 8 -17 20 0 11 5 20 10 20 6 0 10 18 10 39 0 22 5 41 13 44 6 3 -7 13
-30 23 -24 11 -43 25 -43 33 0 10 -9 12 -37 8 -21 -4 -42 -2 -50 5 -15 12 -18
88 -3 88 14 0 12 28 -2 32 -7 3 -13 15 -14 29 -1 13 -5 32 -9 42 -4 9 -4 25 0
35 4 9 7 36 6 60 -2 35 0 42 17 42 10 0 39 11 63 23 36 20 44 29 44 52 0 16 6
30 13 32 6 3 12 -2 12 -11 0 -9 7 -16 15 -16 9 0 15 9 15 25 0 28 3 29 30 15
16 -8 22 -6 36 15 9 15 26 25 39 25 13 0 26 7 29 16 4 9 9 14 13 11 3 -4 12
-2 20 5 11 8 12 7 7 -6 -9 -23 13 -20 26 4 6 11 15 20 21 20 6 0 4 -9 -4 -20z
m2358 -31 c-116 -56 -205 -82 -238 -69 -20 8 -19 9 10 9 42 1 133 33 220 76
38 19 77 34 88 34 11 0 -25 -23 -80 -50z m-2337 11 c-14 -22 -24 -19 -15 5 4
8 11 15 17 15 6 0 6 -7 -2 -20z m2512 -60 c0 -35 -46 -114 -101 -175 -113
-123 -262 -196 -574 -281 -183 -49 -312 -135 -406 -269 -43 -61 -117 -192
-196 -345 -128 -247 -216 -375 -347 -505 -68 -67 -156 -139 -156 -127 0 5 16
22 36 37 72 55 236 243 291 335 12 19 36 60 55 90 18 30 83 152 144 270 64
126 116 214 123 212 7 -1 10 2 6 8 -3 5 4 25 17 43 67 95 171 178 278 221 36
15 74 31 85 35 11 5 76 23 145 41 69 18 132 37 140 41 8 4 58 27 110 52 52 24
122 66 155 92 86 69 174 183 175 228 0 24 20 21 20 -3z m-2636 -416 c3 -8 2
-12 -4 -9 -6 3 -10 10 -10 16 0 14 7 11 14 -7z m86 -80 c0 -8 -19 -13 -24 -6
-3 5 1 9 9 9 8 0 15 -2 15 -3z m218 -219 c-3 -3 -13 7 -23 22 l-17 28 23 -22
c12 -12 20 -25 17 -28z m-73 15 c-4 -6 -1 -17 5 -25 7 -8 10 -15 6 -15 -3 0
-9 -1 -13 -2 -3 -2 -7 6 -9 16 -3 20 3 36 12 36 3 0 2 -5 -1 -10z m-35 -32 c0
-12 17 -29 53 -52 15 -10 27 -25 27 -32 0 -8 5 -14 11 -14 5 0 7 -4 4 -10 -3
-5 1 -10 10 -10 9 0 19 -9 22 -20 3 -11 11 -20 18 -20 7 0 16 -10 20 -22 6
-18 8 -20 12 -7 2 10 13 19 25 22 16 5 18 3 9 -6 -6 -6 -11 -20 -11 -31 0 -15
3 -17 11 -9 6 6 17 9 24 6 20 -7 57 16 51 32 -2 7 3 20 13 29 21 19 35 21 25
4 -4 -8 -3 -9 2 -5 5 5 9 15 9 24 0 8 11 23 25 32 13 9 21 11 17 4 -8 -12 10
-12 31 1 7 4 19 3 26 -3 7 -6 16 -8 19 -5 8 8 39 -67 33 -80 -2 -6 -5 -4 -5 5
-1 19 -38 59 -54 59 -8 0 -8 -3 -1 -8 28 -19 42 -54 32 -78 -6 -13 -14 -21
-18 -19 -10 6 -24 -43 -21 -70 3 -18 1 -17 -18 5 -14 18 -20 21 -21 10 0 -9 5
-21 12 -28 8 -8 8 -12 1 -12 -6 0 -13 7 -17 15 -3 8 -14 15 -25 15 -11 0 -23
5 -26 10 -13 21 -135 2 -135 -21 0 -12 3 -12 36 6 37 19 71 18 109 -4 36 -21
52 -51 66 -128 18 -92 -7 -383 -31 -368 -5 3 -6 -5 -2 -17 3 -13 1 -19 -5 -15
-7 5 -9 -1 -5 -15 4 -16 2 -19 -8 -13 -10 6 -12 4 -6 -11 4 -10 4 -15 0 -11
-4 4 -17 -12 -29 -35 -17 -34 -27 -44 -51 -46 -25 -2 -33 4 -56 40 -51 82 -63
147 -62 328 0 135 3 173 18 210 10 25 18 60 17 78 -1 20 3 31 9 27 5 -3 10 3
10 14 0 11 -4 23 -10 26 -5 3 -10 -1 -10 -9 0 -21 -19 -20 -42 1 -11 10 -37
18 -60 18 -23 1 -45 7 -52 16 -6 8 -19 18 -28 22 -10 3 -18 11 -18 16 0 5 -9
13 -20 16 -11 3 -20 15 -20 26 0 10 -7 19 -15 19 -8 0 -15 7 -15 15 0 8 -11
17 -25 21 -29 7 -34 39 -7 48 96 34 122 37 122 14z m191 -151 c-10 -9 -11 -8
-5 6 3 10 9 15 12 12 3 -3 0 -11 -7 -18z m-56 -117 c-3 -5 -10 -10 -16 -10 -5
0 -9 5 -9 10 0 6 7 10 16 10 8 0 12 -4 9 -10z m35 -4 c0 -23 -16 -27 -17 -5
-1 10 2 19 8 19 5 0 9 -6 9 -14z"/>
<path d="M1535 2300 c3 -5 8 -10 11 -10 2 0 4 5 4 10 0 6 -5 10 -11 10 -5 0
-7 -4 -4 -10z"/>
<path d="M1558 2264 c-5 -4 -8 -19 -8 -33 1 -23 2 -24 11 -8 11 19 9 53 -3 41z"/>
<path d="M1565 2110 c3 -5 8 -10 11 -10 2 0 4 5 4 10 0 6 -5 10 -11 10 -5 0
-7 -4 -4 -10z"/>
<path d="M2100 1370 c0 -5 5 -10 11 -10 5 0 7 5 4 10 -3 6 -8 10 -11 10 -2 0
-4 -4 -4 -10z"/>
<path d="M1910 1220 c0 -5 5 -10 11 -10 5 0 7 5 4 10 -3 6 -8 10 -11 10 -2 0
-4 -4 -4 -10z"/>
<path d="M1826 1044 c-9 -24 -6 -42 4 -18 6 17 15 20 40 16 22 -3 28 -7 19
-13 -7 -4 -11 -11 -8 -14 4 -3 12 1 19 10 10 12 8 16 -15 25 -37 14 -52 13
-59 -6z"/>
<path d="M1932 1049 c10 -5 34 -10 53 -11 27 -1 32 -4 21 -10 -9 -5 -20 -7
-25 -4 -11 7 -23 -22 -15 -35 3 -5 -10 -9 -28 -10 -18 0 -27 -3 -20 -6 17 -7
15 -23 -3 -23 -8 0 -15 7 -15 15 0 8 -7 15 -15 15 -8 0 -15 7 -15 15 0 8 -7
15 -16 15 -12 0 -14 -9 -12 -42 l3 -43 50 -1 c28 0 59 4 69 9 14 7 21 5 28 -7
5 -9 14 -13 20 -10 8 5 9 -10 4 -50 -7 -62 -30 -126 -49 -138 -6 -4 -8 -10 -5
-13 14 -14 29 9 49 76 15 50 20 84 15 115 -3 24 -2 44 3 44 12 0 7 78 -5 89
-5 5 -31 11 -59 14 -36 5 -45 4 -33 -4z m38 -83 c0 -3 -4 -8 -10 -11 -5 -3
-10 -1 -10 4 0 6 5 11 10 11 6 0 10 -2 10 -4z"/>
<path d="M1813 920 c0 -25 2 -35 4 -22 2 12 2 32 0 45 -2 12 -4 2 -4 -23z"/>
<path d="M1823 825 c0 -22 2 -30 4 -17 2 12 2 30 0 40 -3 9 -5 -1 -4 -23z"/>
<path d="M1962 780 c0 -14 2 -19 5 -12 2 6 2 18 0 25 -3 6 -5 1 -5 -13z"/>
<path d="M1831 772 c-1 -18 47 -92 65 -99 27 -10 27 6 0 18 -17 8 -26 20 -26
36 0 13 -6 23 -14 23 -8 0 -17 8 -19 18 -3 9 -5 11 -6 4z"/>
<path d="M1900 621 c0 -6 4 -13 10 -16 6 -3 7 1 4 9 -7 18 -14 21 -14 7z"/>
<path d="M4620 4189 c0 -5 5 -7 10 -4 6 3 10 8 10 11 0 2 -4 4 -10 4 -5 0 -10
-5 -10 -11z"/>
<path d="M4890 4182 c0 -13 61 -92 71 -92 5 0 9 3 9 8 -1 13 -27 42 -39 42 -6
0 -10 3 -9 8 2 12 -14 42 -23 42 -5 0 -9 -4 -9 -8z"/>
<path d="M4630 4162 c0 -5 9 -17 19 -26 22 -20 40 -4 21 19 -13 16 -40 20 -40
7z"/>
<path d="M4806 4125 c-20 -20 -20 -29 -1 -45 12 -10 18 -10 30 0 19 16 19 34
1 49 -11 9 -18 8 -30 -4z"/>
<path d="M4675 4111 c-3 -5 5 -18 17 -28 13 -10 29 -30 35 -45 7 -16 17 -28
23 -28 5 0 10 -7 10 -15 0 -8 9 -20 20 -27 11 -7 20 -18 20 -24 0 -12 42 -54
54 -54 8 0 -34 63 -46 68 -4 2 -8 10 -8 18 0 7 -9 19 -20 26 -11 7 -20 17 -20
23 0 5 -14 26 -30 45 -16 19 -30 38 -30 43 0 10 -18 9 -25 -2z"/>
<path d="M4966 4081 c-3 -4 8 -20 24 -35 34 -30 37 -26 13 15 -18 30 -28 35
-37 20z"/>
<path d="M4476 4052 c-8 -13 10 -52 24 -52 18 0 18 16 1 39 -12 15 -21 20 -25
13z"/>
<path d="M4515 3990 c-3 -5 16 -36 42 -69 26 -32 59 -73 73 -90 50 -64 58 -72
65 -61 3 5 1 10 -4 10 -6 0 -11 7 -11 15 0 8 -9 20 -20 27 -11 7 -20 17 -20
23 0 5 -14 26 -30 45 -16 19 -30 38 -30 43 0 4 -7 7 -16 7 -8 0 -12 4 -9 10 7
11 -12 50 -25 50 -5 0 -12 -4 -15 -10z"/>
<path d="M4320 3926 c0 -16 28 -42 36 -33 7 6 -18 47 -28 47 -5 0 -8 -6 -8
-14z"/>
<path d="M4480 3875 c-25 -30 5 -57 40 -35 11 7 12 14 4 27 -15 23 -29 26 -44
8z"/>
<path d="M4360 3871 c0 -5 10 -18 23 -28 13 -10 24 -22 25 -28 4 -17 63 -95
73 -95 5 0 9 -6 9 -13 0 -8 11 -24 26 -38 22 -21 24 -21 18 -4 -7 17 -58 89
-74 105 -3 3 -23 29 -44 58 -35 49 -56 64 -56 43z"/>
<path d="M4160 3845 c0 -27 44 -75 57 -61 8 7 -21 46 -35 46 -7 0 -10 5 -7 10
3 6 1 10 -4 10 -6 0 -11 -2 -11 -5z"/>
<path d="M4220 3754 c8 -11 20 -26 27 -34 8 -8 29 -36 49 -62 19 -27 39 -48
44 -48 18 0 10 18 -15 38 -14 11 -25 25 -25 31 0 6 -8 19 -17 29 -10 10 -23
27 -29 38 -6 10 -20 21 -30 23 -16 3 -17 1 -4 -15z"/>
<path d="M4040 3716 c0 -16 28 -42 36 -33 7 6 -18 47 -28 47 -5 0 -8 -6 -8
-14z"/>
<path d="M4080 3662 c0 -5 8 -17 18 -28 9 -10 34 -43 56 -71 21 -29 42 -53 47
-53 15 0 10 13 -14 42 -42 50 -52 63 -70 91 -17 26 -37 36 -37 19z"/>
<path d="M3897 3654 c-6 -11 30 -74 43 -74 18 0 17 16 -1 39 -10 13 -19 19
-20 15 0 -5 -4 0 -8 10 -4 11 -10 15 -14 10z"/>
<path d="M4000 3629 c0 -5 6 -7 13 -3 10 6 10 4 0 -7 -19 -20 -16 -29 12 -29
20 0 25 5 25 25 0 20 -5 25 -25 25 -14 0 -25 -5 -25 -11z"/>
<path d="M4351 3583 c20 -27 49 -55 49 -48 0 11 -23 50 -34 57 -20 14 -29 8
-15 -9z"/>
<path d="M3956 3571 c-5 -7 0 -21 10 -32 33 -37 47 -18 16 22 -14 16 -21 19
-26 10z"/>
<path d="M3785 3531 c16 -31 33 -47 42 -38 7 8 -36 67 -48 67 -5 0 -3 -13 6
-29z"/>
<path d="M3996 3511 c-3 -5 4 -19 17 -33 12 -13 35 -42 50 -65 26 -38 85 -99
76 -78 -22 48 -34 65 -46 65 -8 0 -11 5 -8 11 4 5 -4 20 -17 32 -12 12 -29 34
-37 50 -15 28 -26 34 -35 18z"/>
<path d="M4210 3495 c0 -14 44 -64 51 -59 10 6 -30 64 -43 64 -4 0 -8 -2 -8
-5z"/>
<path d="M4110 3465 c0 -20 5 -25 25 -25 20 0 25 5 25 25 0 20 -5 25 -25 25
-20 0 -25 -5 -25 -25z"/>
<path d="M3830 3475 c0 -8 72 -100 81 -103 5 -2 9 -8 9 -13 0 -17 85 -119 99
-119 15 0 17 -3 -45 75 -43 55 -40 52 -91 118 -31 41 -53 58 -53 42z"/>
<path d="M3676 3452 c-3 -5 2 -20 12 -33 24 -29 36 -11 13 20 -11 14 -21 19
-25 13z"/>
<path d="M3717 3392 c-3 -4 5 -20 19 -35 13 -14 24 -29 24 -33 0 -4 19 -30 43
-58 24 -28 53 -66 66 -83 12 -18 27 -33 32 -33 16 0 10 15 -21 48 -16 18 -30
37 -30 42 0 5 -10 17 -23 27 -12 10 -28 30 -34 46 -7 15 -17 27 -23 27 -5 0
-10 6 -10 13 0 18 -36 51 -43 39z"/>
<path d="M3550 3382 c8 -4 16 -14 18 -22 5 -22 23 -41 33 -34 14 8 -30 64 -49
63 -14 0 -15 -2 -2 -7z"/>
<path d="M3442 3320 c2 -8 6 -19 11 -25 33 -46 45 -57 50 -48 4 6 -9 28 -29
49 -19 21 -34 32 -32 24z"/>
<path d="M3610 3309 c0 -13 12 -30 70 -97 11 -13 20 -25 20 -27 0 -14 86 -115
97 -115 10 0 6 11 -13 35 -14 19 -30 35 -35 35 -5 0 -9 6 -9 13 0 11 -13 29
-70 95 -11 13 -20 27 -20 31 0 4 -9 16 -20 26 -15 14 -20 15 -20 4z"/>
<path d="M3712 3291 c-20 -12 -10 -46 15 -49 14 -2 23 3 28 17 11 35 -12 52
-43 32z"/>
<path d="M3345 3240 c-3 -5 -2 -10 4 -10 5 0 13 5 16 10 3 6 2 10 -4 10 -5 0
-13 -4 -16 -10z"/>
<path d="M3507 3233 c-3 -5 7 -23 21 -41 15 -17 34 -42 43 -54 9 -12 18 -17
22 -12 3 6 -5 22 -19 37 -13 14 -24 30 -24 35 0 14 -37 44 -43 35z"/>
<path d="M3365 3220 c-5 -9 1 -21 18 -36 15 -13 27 -27 27 -33 0 -5 11 -18 25
-29 13 -11 23 -21 20 -23 -2 -3 5 -15 15 -29 10 -14 22 -21 26 -17 7 7 -10 35
-66 106 -14 18 -32 42 -41 53 -12 17 -18 18 -24 8z"/>
<path d="M3010 3210 c-8 -5 -11 -12 -7 -16 4 -4 13 -2 19 4 15 15 7 24 -12 12z"/>
<path d="M3250 3170 c0 -5 5 -10 10 -10 6 0 10 5 10 10 0 6 -4 10 -10 10 -5 0
-10 -4 -10 -10z"/>
<path d="M3276 3152 c-4 -7 3 -22 16 -35 13 -13 29 -35 37 -50 8 -15 21 -27
28 -27 8 0 12 -4 9 -9 -3 -5 6 -21 19 -35 14 -15 25 -29 25 -31 0 -6 66 -92
84 -111 9 -9 17 -10 21 -4 3 5 1 10 -4 10 -6 0 -11 5 -11 11 0 6 -17 32 -37
57 -43 53 -41 50 -90 117 -21 28 -41 55 -45 60 -4 6 -16 21 -26 34 -13 16 -21
20 -26 13z"/>
<path d="M3511 3137 c-22 -22 -2 -61 25 -50 8 3 14 15 14 28 0 26 -22 39 -39
22z"/>
<path d="M3165 3110 c-3 -5 -2 -10 4 -10 5 0 13 5 16 10 3 6 2 10 -4 10 -5 0
-13 -4 -16 -10z"/>
<path d="M3600 3112 c0 -19 82 -122 97 -122 9 0 5 12 -14 35 -15 19 -31 35
-35 35 -5 0 -8 6 -8 13 0 8 -9 22 -20 32 -11 10 -20 13 -20 7z"/>
<path d="M3180 3082 c0 -14 39 -46 47 -38 4 4 2 15 -3 24 -12 19 -44 29 -44
14z"/>
<path d="M3085 3050 c-3 -5 1 -10 10 -10 9 0 13 5 10 10 -3 6 -8 10 -10 10 -2
0 -7 -4 -10 -10z"/>
<path d="M3504 3038 c-4 -6 3 -20 17 -32 13 -12 25 -25 26 -29 3 -18 53 -70
60 -63 4 4 3 10 -2 14 -6 4 -28 33 -49 65 -22 31 -41 57 -42 57 -2 0 -6 -5
-10 -12z"/>
<path d="M3235 3030 c-4 -6 1 -21 12 -33 10 -12 21 -26 25 -32 70 -99 151
-195 160 -189 7 4 -7 26 -42 63 -8 9 -21 29 -29 44 -8 15 -21 27 -28 27 -8 0
-12 4 -9 9 3 5 -6 21 -19 35 -14 15 -25 29 -25 32 0 3 -9 17 -19 30 -12 16
-22 21 -26 14z"/>
<path d="M3116 3005 c16 -24 34 -34 34 -17 -1 13 -27 42 -39 42 -7 0 -6 -9 5
-25z"/>
<path d="M3333 3003 c-7 -2 -13 -16 -13 -29 0 -19 5 -24 26 -24 22 0 25 4 22
27 -3 27 -14 35 -35 26z"/>
<path d="M3005 2990 c-3 -5 1 -10 9 -10 9 0 16 5 16 10 0 6 -4 10 -9 10 -6 0
-13 -4 -16 -10z"/>
<path d="M3026 2972 c-7 -12 30 -56 43 -48 8 5 6 14 -5 32 -17 25 -29 30 -38
16z"/>
<path d="M3152 2961 c3 -8 13 -21 101 -135 81 -104 91 -115 99 -110 7 4 -8 27
-44 65 -9 9 -14 19 -12 22 3 2 -8 15 -23 28 -16 13 -28 27 -28 31 0 3 -10 18
-22 32 -13 15 -23 30 -23 35 0 10 -33 41 -44 41 -4 0 -6 -4 -4 -9z"/>
<path d="M2939 2939 c-11 -7 -11 -9 4 -9 10 0 15 -5 12 -11 -7 -11 22 -49 37
-49 14 0 9 15 -15 47 -17 23 -27 29 -38 22z"/>
<path d="M3075 2910 c-3 -6 8 -27 25 -48 64 -76 70 -84 70 -91 0 -9 34 -41 43
-41 14 0 6 24 -15 44 -13 12 -29 33 -37 47 -13 22 -13 23 2 10 23 -19 49 -6
45 21 -4 27 -37 37 -50 14 -11 -20 -38 -21 -38 -1 0 23 -36 59 -45 45z"/>
<path d="M2690 2890 c0 -5 5 -10 10 -10 6 0 10 5 10 10 0 6 -4 10 -10 10 -5 0
-10 -4 -10 -10z"/>
<path d="M2719 2873 c-13 -15 -12 -15 9 -4 23 12 28 21 13 21 -5 0 -15 -7 -22
-17z"/>
<path d="M3000 2852 c0 -13 30 -52 41 -52 15 0 10 26 -9 43 -20 18 -32 22 -32
9z"/>
<path d="M3047 2792 c-7 -9 28 -52 42 -52 15 0 14 6 -5 35 -17 25 -29 31 -37
17z"/>
<path d="M3096 2731 c-3 -5 13 -33 36 -62 59 -75 66 -81 73 -69 3 5 1 10 -5
10 -6 0 -9 4 -6 8 3 5 -5 19 -18 33 -12 13 -31 39 -41 57 -20 33 -30 39 -39
23z"/>
<path d="M2310 2714 c0 -17 22 -14 28 4 2 7 -3 12 -12 12 -9 0 -16 -7 -16 -16z"/>
<path d="M3216 2722 c-6 -11 53 -77 61 -68 4 4 3 10 -2 14 -6 4 -16 19 -22 35
-12 27 -27 35 -37 19z"/>
<path d="M2290 2580 c12 -22 27 -25 50 -9 12 9 11 10 -7 6 -13 -3 -24 1 -27 9
-3 8 -10 14 -16 14 -8 0 -8 -6 0 -20z"/>
<path d="M1885 2571 c-6 -11 9 -23 19 -14 9 9 7 23 -3 23 -6 0 -12 -4 -16 -9z"/>
<path d="M3210 2520 c-8 -5 -11 -12 -7 -16 4 -4 13 -2 19 4 15 15 7 24 -12 12z"/>
<path d="M3090 2390 c-8 -5 -11 -12 -8 -16 4 -3 14 1 23 10 18 17 9 21 -15 6z"/>
<path d="M1952 2328 c8 -23 37 -34 50 -19 11 12 10 13 -4 8 -9 -3 -19 0 -22 9
-6 17 -29 19 -24 2z"/>
<path d="M2060 2251 c0 -6 4 -13 10 -16 6 -3 7 1 4 9 -7 18 -14 21 -14 7z"/>
<path d="M2560 2239 c0 -5 5 -7 10 -4 6 3 10 8 10 11 0 2 -4 4 -10 4 -5 0 -10
-5 -10 -11z"/>
<path d="M2030 2230 c-13 -8 -12 -10 3 -10 9 0 17 5 17 10 0 12 -1 12 -20 0z"/>
<path d="M2587 2233 c-4 -3 -7 -11 -7 -17 0 -6 5 -5 12 2 6 6 9 14 7 17 -3 3
-9 2 -12 -2z"/>
<path d="M3930 2220 c0 -5 4 -10 9 -10 6 0 13 5 16 10 3 6 -1 10 -9 10 -9 0
-16 -4 -16 -10z"/>
<path d="M1630 2200 c-8 -5 -11 -12 -7 -16 4 -4 13 -2 19 4 15 15 7 24 -12 12z"/>
<path d="M2076 2153 c-6 -14 -5 -15 5 -6 7 7 10 15 7 18 -3 3 -9 -2 -12 -12z"/>
<path d="M2995 2150 c3 -5 8 -10 11 -10 2 0 4 5 4 10 0 6 -5 10 -11 10 -5 0
-7 -4 -4 -10z"/>
<path d="M2696 2123 c-6 -14 -5 -15 5 -6 7 7 10 15 7 18 -3 3 -9 -2 -12 -12z"/>
<path d="M2970 2099 l-35 -30 38 26 c33 24 43 35 34 35 -1 0 -18 -14 -37 -31z"/>
<path d="M2677 2080 c7 -26 15 -25 32 3 13 20 13 21 -2 8 -11 -9 -17 -10 -17
-2 0 6 -4 11 -9 11 -5 0 -7 -9 -4 -20z"/>
<path d="M1800 2063 c0 -6 6 -18 13 -25 7 -7 28 -33 47 -58 19 -25 38 -49 43
-55 4 -5 40 -52 78 -103 39 -51 74 -91 77 -88 3 3 -8 23 -25 44 -16 20 -60 77
-97 126 -37 48 -71 93 -76 100 -43 53 -59 69 -60 59z"/>
<path d="M1671 2024 c-7 -8 -10 -18 -6 -22 4 -4 10 -2 12 5 2 7 12 9 21 6 15
-6 15 -5 3 10 -16 20 -13 20 -30 1z"/>
<path d="M2844 1998 l-19 -23 23 19 c21 18 27 26 19 26 -2 0 -12 -10 -23 -22z"/>
<path d="M1710 1997 c0 -6 48 -57 55 -57 15 0 2 21 -25 40 -16 12 -30 19 -30
17z"/>
<path d="M1645 1965 c-17 -13 -25 -24 -19 -25 15 0 61 37 54 44 -3 3 -19 -6
-35 -19z"/>
<path d="M3510 1960 c0 -5 4 -10 9 -10 6 0 13 5 16 10 3 6 -1 10 -9 10 -9 0
-16 -4 -16 -10z"/>
<path d="M1725 1950 c-3 -5 -1 -10 4 -10 6 0 11 5 11 10 0 6 -2 10 -4 10 -3 0
-8 -4 -11 -10z"/>
<path d="M1595 1920 c-16 -7 -17 -9 -3 -9 9 -1 20 4 23 9 7 11 7 11 -20 0z"/>
<path d="M1775 1920 c3 -5 1 -10 -4 -10 -6 0 -11 -5 -11 -11 0 -8 4 -8 14 0
11 10 20 5 45 -21 34 -36 37 -47 19 -67 -11 -11 -10 -13 4 -8 22 8 48 -21 29
-33 -9 -5 -10 -10 -2 -14 6 -4 11 -2 11 4 0 6 5 8 10 5 18 -11 10 22 -10 40
-11 10 -20 27 -20 37 0 10 -7 21 -15 24 -8 4 -15 12 -15 19 0 7 -11 20 -25 29
-28 18 -39 21 -30 6z"/>
<path d="M2185 1920 c-3 -5 -1 -10 4 -10 6 0 11 5 11 10 0 6 -2 10 -4 10 -3 0
-8 -4 -11 -10z"/>
<path d="M1708 1902 c-16 -10 -28 -20 -28 -24 0 -15 17 -8 40 17 27 29 25 29
-12 7z"/>
<path d="M1760 1829 c-25 -20 -30 -29 -18 -29 9 0 21 6 25 13 4 8 16 18 27 24
10 6 15 13 10 16 -5 3 -25 -8 -44 -24z"/>
<path d="M1820 1840 c0 -5 5 -10 11 -10 5 0 7 5 4 10 -3 6 -8 10 -11 10 -2 0
-4 -4 -4 -10z"/>
<path d="M2218 1833 c7 -3 16 -2 19 1 4 3 -2 6 -13 5 -11 0 -14 -3 -6 -6z"/>
<path d="M2258 1786 c-10 -7 -18 -18 -18 -23 0 -17 28 -35 41 -28 8 6 7 10 -2
16 -10 6 -11 9 -1 9 6 0 12 4 12 10 0 5 -8 6 -17 3 -16 -6 -16 -5 -4 10 16 20
12 21 -11 3z"/>
<path d="M1705 1780 c4 -6 11 -8 16 -5 14 9 11 15 -7 15 -8 0 -12 -5 -9 -10z"/>
<path d="M1810 1759 c-21 -17 -29 -29 -20 -29 15 0 66 47 59 55 -2 2 -20 -10
-39 -26z"/>
<path d="M1910 1763 c0 -4 10 -17 22 -30 12 -13 16 -23 10 -23 -7 0 -12 -4
-12 -9 0 -5 9 -7 20 -4 16 4 19 2 14 -13 -4 -14 -3 -15 3 -6 13 18 36 -9 27
-32 -7 -17 3 -21 23 -8 9 5 -3 26 -40 69 -48 57 -67 73 -67 56z"/>
<path d="M1695 1740 c3 -5 8 -10 11 -10 2 0 4 5 4 10 0 6 -5 10 -11 10 -5 0
-7 -4 -4 -10z"/>
<path d="M1890 1740 c0 -5 5 -10 10 -10 6 0 10 5 10 10 0 6 -4 10 -10 10 -5 0
-10 -4 -10 -10z"/>
<path d="M1900 1709 c0 -5 5 -7 10 -4 6 3 10 8 10 11 0 2 -4 4 -10 4 -5 0 -10
-5 -10 -11z"/>
<path d="M2043 1713 c15 -4 21 -15 18 -35 0 -5 4 -8 9 -8 6 0 10 6 11 13 0 6
5 1 12 -12 9 -20 8 -26 -8 -38 -20 -15 -20 -15 0 -11 48 8 18 99 -33 97 -17
-1 -20 -3 -9 -6z"/>
<path d="M2033 1685 c0 -8 4 -12 9 -9 5 3 6 10 3 15 -9 13 -12 11 -12 -6z"/>
<path d="M1850 1680 c-8 -5 -11 -12 -7 -16 4 -4 15 0 24 9 18 18 8 23 -17 7z"/>
<path d="M2740 1659 c0 -5 -4 -7 -10 -4 -5 3 -10 -1 -10 -9 0 -19 11 -21 28
-4 15 15 16 28 2 28 -5 0 -10 -5 -10 -11z"/>
<path d="M1951 1646 c-10 -12 -8 -13 8 -9 12 3 21 9 21 14 0 14 -16 11 -29 -5z"/>
<path d="M1818 1643 c7 -3 16 -2 19 1 4 3 -2 6 -13 5 -11 0 -14 -3 -6 -6z"/>
<path d="M1802 1600 c0 -14 2 -19 5 -12 2 6 2 18 0 25 -3 6 -5 1 -5 -13z"/>
<path d="M1887 1599 c-22 -25 -15 -38 8 -15 9 9 21 16 26 16 5 0 9 5 9 10 0
17 -25 11 -43 -11z"/>
<path d="M2096 1589 c2 -4 -2 -9 -8 -12 -10 -3 -10 -8 -2 -16 8 -9 15 -6 26
11 14 22 14 24 -2 24 -10 0 -17 -3 -14 -7z"/>
<path d="M2720 1575 c0 -8 2 -15 4 -15 2 0 6 7 10 15 3 8 1 15 -4 15 -6 0 -10
-7 -10 -15z"/>
<path d="M2712 1530 c0 -14 2 -19 5 -12 2 6 2 18 0 25 -3 6 -5 1 -5 -13z"/>
<path d="M2845 1529 c-12 -19 5 -23 22 -6 16 16 16 17 1 17 -9 0 -20 -5 -23
-11z"/>
<path d="M1870 1458 c0 -8 7 -21 15 -28 19 -16 19 -1 0 24 -12 16 -15 17 -15
4z"/>
<path d="M2688 1405 c-6 -30 -3 -43 8 -33 3 4 4 19 2 35 l-3 28 -7 -30z"/>
<path d="M2671 1314 c-18 -21 -6 -30 14 -11 8 9 15 18 15 21 0 11 -15 5 -29
-10z"/>
<path d="M2295 1261 c-3 -5 -1 -12 5 -16 5 -3 10 1 10 9 0 18 -6 21 -15 7z"/>
<path d="M2620 1121 c0 -18 18 -21 30 -6 10 13 9 15 -9 15 -11 0 -21 -4 -21
-9z"/>
<path d="M2266 892 c-2 -4 -1 -14 5 -22 7 -12 9 -10 9 8 0 23 -5 28 -14 14z"/>
<path d="M2311 771 c-8 -5 -10 -14 -6 -21 6 -9 10 -8 17 4 12 21 7 28 -11 17z"/>
</g>
</svg>
